<svg width="35" height="35" viewBox="0 0 35 35" fill="none" xmlns="http://www.w3.org/2000/svg">
<path d="M15.2161 12.1398V14.5495H13.4521V17.4947H15.2161V26.25H18.8421V17.4947H21.2746C21.2746 17.4947 21.5039 16.0825 21.6141 14.5373H18.8561V12.5247C18.8561 12.222 19.2516 11.8178 19.6436 11.8178H21.6176V8.75H18.9314C15.1269 8.75 15.2161 11.6988 15.2161 12.1398Z" fill="#4FD600"/>
<path d="M7 3.5C6.07174 3.5 5.1815 3.86875 4.52513 4.52513C3.86875 5.1815 3.5 6.07174 3.5 7V28C3.5 28.9283 3.86875 29.8185 4.52513 30.4749C5.1815 31.1313 6.07174 31.5 7 31.5H28C28.9283 31.5 29.8185 31.1313 30.4749 30.4749C31.1313 29.8185 31.5 28.9283 31.5 28V7C31.5 6.07174 31.1313 5.1815 30.4749 4.52513C29.8185 3.86875 28.9283 3.5 28 3.5H7ZM7 0H28C29.8565 0 31.637 0.737498 32.9497 2.05025C34.2625 3.36301 35 5.14348 35 7V28C35 29.8565 34.2625 31.637 32.9497 32.9497C31.637 34.2625 29.8565 35 28 35H7C5.14348 35 3.36301 34.2625 2.05025 32.9497C0.737498 31.637 0 29.8565 0 28V7C0 5.14348 0.737498 3.36301 2.05025 2.05025C3.36301 0.737498 5.14348 0 7 0Z" fill="#4FD600"/>
</svg>
