<svg width="36" height="36" viewBox="0 0 36 36" fill="none" xmlns="http://www.w3.org/2000/svg">
<path fill-rule="evenodd" clip-rule="evenodd" d="M18.1665 10.2122C16.0568 10.2122 14.0335 11.0502 12.5417 12.542C11.05 14.0338 10.2119 16.057 10.2119 18.1667C10.2119 20.2764 11.05 22.2997 12.5417 23.7914C14.0335 25.2832 16.0568 26.1212 18.1665 26.1212C20.2761 26.1212 22.2994 25.2832 23.7912 23.7914C25.2829 22.2997 26.121 20.2764 26.121 18.1667C26.121 16.057 25.2829 14.0338 23.7912 12.542C22.2994 11.0502 20.2761 10.2122 18.1665 10.2122V10.2122ZM13.3937 18.1667C13.3937 19.4325 13.8966 20.6465 14.7916 21.5415C15.6867 22.4366 16.9007 22.9394 18.1665 22.9394C19.4323 22.9394 20.6462 22.4366 21.5413 21.5415C22.4363 20.6465 22.9392 19.4325 22.9392 18.1667C22.9392 16.9009 22.4363 15.6869 21.5413 14.7919C20.6462 13.8968 19.4323 13.394 18.1665 13.394C16.9007 13.394 15.6867 13.8968 14.7916 14.7919C13.8966 15.6869 13.3937 16.9009 13.3937 18.1667Z" fill="#4FD600"/>
<path d="M27.712 7.03027C27.2901 7.03027 26.8854 7.19789 26.5871 7.49624C26.2887 7.79459 26.1211 8.19925 26.1211 8.62118C26.1211 9.04312 26.2887 9.44777 26.5871 9.74612C26.8854 10.0445 27.2901 10.2121 27.712 10.2121C28.1339 10.2121 28.5386 10.0445 28.8369 9.74612C29.1353 9.44777 29.3029 9.04312 29.3029 8.62118C29.3029 8.19925 29.1353 7.79459 28.8369 7.49624C28.5386 7.19789 28.1339 7.03027 27.712 7.03027Z" fill="#4FD600"/>
<path fill-rule="evenodd" clip-rule="evenodd" d="M7.03014 0.666687C5.3424 0.666687 3.72378 1.33714 2.53037 2.53055C1.33696 3.72397 0.666504 5.34258 0.666504 7.03032V29.3031C0.666504 30.9908 1.33696 32.6094 2.53037 33.8028C3.72378 34.9962 5.3424 35.6667 7.03014 35.6667H29.3029C30.9906 35.6667 32.6092 34.9962 33.8026 33.8028C34.9961 32.6094 35.6665 30.9908 35.6665 29.3031V7.03032C35.6665 5.34258 34.9961 3.72397 33.8026 2.53055C32.6092 1.33714 30.9906 0.666687 29.3029 0.666687H7.03014ZM29.3029 3.84851H7.03014C6.18627 3.84851 5.37696 4.18373 4.78025 4.78044C4.18355 5.37714 3.84832 6.18645 3.84832 7.03032V29.3031C3.84832 30.1469 4.18355 30.9562 4.78025 31.5529C5.37696 32.1496 6.18627 32.4849 7.03014 32.4849H29.3029C30.1467 32.4849 30.956 32.1496 31.5528 31.5529C32.1495 30.9562 32.4847 30.1469 32.4847 29.3031V7.03032C32.4847 6.18645 32.1495 5.37714 31.5528 4.78044C30.956 4.18373 30.1467 3.84851 29.3029 3.84851Z" fill="#4FD600"/>
</svg>
