<svg width="35" height="36" viewBox="0 0 35 36" fill="none" xmlns="http://www.w3.org/2000/svg">
<path d="M26.25 12.4905C25.606 12.7705 24.9147 12.963 24.1885 13.047C24.9305 12.6095 25.4975 11.9165 25.767 11.0923C25.0599 11.5043 24.2885 11.7942 23.485 11.9498C23.147 11.5955 22.7404 11.3138 22.29 11.1219C21.8396 10.9299 21.3549 10.8317 20.8653 10.8333C18.8825 10.8333 17.276 12.417 17.276 14.3683C17.276 14.6448 17.3075 14.9143 17.3688 15.1733C15.9466 15.1057 14.5541 14.7425 13.2801 14.1067C12.0062 13.471 10.8787 12.5766 9.96975 11.4808C9.65049 12.0182 9.48239 12.6319 9.48325 13.257C9.48325 14.482 10.1185 15.567 11.081 16.1988C10.5113 16.1809 9.95376 16.0292 9.4535 15.756V15.7998C9.45891 16.6213 9.7489 17.4156 10.2741 18.0474C10.7993 18.6792 11.5273 19.1094 12.334 19.2648C11.8044 19.4048 11.2502 19.4251 10.7118 19.3243C10.9465 20.031 11.3954 20.6472 11.9963 21.0872C12.5972 21.5272 13.3201 21.7691 14.0647 21.7795C12.7872 22.764 11.2186 23.2959 9.60575 23.2915C9.317 23.2915 9.03175 23.274 8.75 23.2425C10.3958 24.2843 12.3042 24.836 14.252 24.8333C20.8565 24.8333 24.4667 19.4468 24.4667 14.7743L24.4545 14.3158C25.1585 13.821 25.7669 13.2026 26.25 12.4905V12.4905Z" fill="#4FD600"/>
<path d="M7 3.83325C6.07174 3.83325 5.1815 4.202 4.52513 4.85838C3.86875 5.51476 3.5 6.40499 3.5 7.33325V28.3333C3.5 29.2615 3.86875 30.1517 4.52513 30.8081C5.1815 31.4645 6.07174 31.8333 7 31.8333H28C28.9283 31.8333 29.8185 31.4645 30.4749 30.8081C31.1313 30.1517 31.5 29.2615 31.5 28.3333V7.33325C31.5 6.40499 31.1313 5.51476 30.4749 4.85838C29.8185 4.202 28.9283 3.83325 28 3.83325H7ZM7 0.333252H28C29.8565 0.333252 31.637 1.07075 32.9497 2.3835C34.2625 3.69626 35 5.47674 35 7.33325V28.3333C35 30.1898 34.2625 31.9702 32.9497 33.283C31.637 34.5958 29.8565 35.3333 28 35.3333H7C5.14348 35.3333 3.36301 34.5958 2.05025 33.283C0.737498 31.9702 0 30.1898 0 28.3333V7.33325C0 5.47674 0.737498 3.69626 2.05025 2.3835C3.36301 1.07075 5.14348 0.333252 7 0.333252Z" fill="#4FD600"/>
</svg>
